<svg width="800" height="350.00000000000006" xmlns="http://www.w3.org/2000/svg" style="background-color:e5e5e5">

 <g>
  <title>Layer 1</title>
  <line y1="64.97502" y2="64.97502" stroke-linecap="undefined" stroke-linejoin="undefined" id="svg_1" x2="753.12499" x1="46.87503" stroke="#000" fill="none"/>
  <path id="svg_5" d="m754.07951,65.034l-8.07759,-14.5l14.52377,14.5l-14.52377,14.49999l8.07759,-14.49999z" stroke="#000" fill="none"/>
  <text xml:space="preserve" text-anchor="start" font-family="Noto Sans JP" font-size="24" stroke-width="0" id="svg_6" y="37.75073" x="732.7426" stroke="#000" fill="#000000">Server</text>
  <line y1="238.80827" y2="238.80827" stroke-linecap="undefined" stroke-linejoin="undefined" id="svg_10" x2="753.12499" x1="46.87503" stroke="#000" fill="none"/>
  <path id="svg_11" d="m754.07951,238.86725l-8.0776,-14.50001l14.52377,14.50001l-14.52377,14.49999l8.0776,-14.49999z" stroke="#000" fill="none"/>
  <text xml:space="preserve" text-anchor="start" font-family="Noto Sans JP" font-size="24" stroke-width="0" id="svg_12" y="283.03326" x="738.10422" stroke="#000" fill="#000000">Client</text>
  <line stroke="#000" stroke-dasharray="2,2" id="svg_13" y2="321.15199" x2="387" y1="45.29942" x1="387" fill="none"/>
  <text xml:space="preserve" text-anchor="start" font-family="Noto Sans JP" font-size="24" stroke-width="0" id="svg_15" y="340.96518" x="362.75078" stroke="#000" fill="#000000">Now</text>
  <line stroke-linecap="undefined" stroke-linejoin="undefined" id="svg_19" y2="79.27398" x2="480" y1="52.20001" x1="480" stroke="#000" fill="none"/>
  <path id="svg_21" d="m180,79.27398" opacity="undefined" stroke-linecap="undefined" stroke-linejoin="undefined" stroke="#000" fill="none"/>
  <line stroke-linecap="undefined" stroke-linejoin="undefined" id="svg_24" y2="79.27398" x2="580" y1="52.20001" x1="580" stroke="#000" fill="none"/>
  <line stroke-linecap="undefined" stroke-linejoin="undefined" id="svg_25" y2="79.27398" x2="680" y1="52.20001" x1="680" stroke="#000" fill="none"/>
  <text xml:space="preserve" text-anchor="start" font-family="Noto Sans JP" font-size="24" stroke-width="0" id="svg_26" y="40" x="80" stroke="#000" fill="#000000">#11</text>
  <text style="cursor: move;" xml:space="preserve" text-anchor="start" font-family="Noto Sans JP" font-size="24" stroke-width="0" id="svg_27" y="40" x="180" stroke="#000" fill="#000000">#12</text>
  <text style="cursor: move;" xml:space="preserve" text-anchor="start" font-family="Noto Sans JP" font-size="24" stroke-width="0" id="svg_28" y="40" x="280" stroke="#000" fill="#000000">#13</text>
  <text xml:space="preserve" text-anchor="start" font-family="Noto Sans JP" font-size="24" stroke-width="0" id="svg_29" y="40" x="380" stroke="#000" fill="#000000">#14</text>
  <text xml:space="preserve" text-anchor="start" font-family="Noto Sans JP" font-size="24" stroke-width="0" id="svg_30" y="40" x="480" stroke="#000" fill="#000000">#15</text>
  <text xml:space="preserve" text-anchor="start" font-family="Noto Sans JP" font-size="24" stroke-width="0" id="svg_31" y="40" x="580" stroke="#000" fill="#000000">#16</text>
  <path transform="rotate(60 367.864 231.519)" id="svg_37" d="m368.40946,231.51864l-5.40195,-9.69698l9.71287,9.69698l-9.71287,9.69697l5.40195,-9.69697z" stroke="#000" fill="none"/>
  <line stroke="#000" id="svg_38" y2="231.81821" x2="368.53425" y1="68.88509" x1="282.31051" fill="none"/>
  <text transform="rotate(62 331.658 140.068)" xml:space="preserve" text-anchor="start" font-family="Noto Sans JP" font-size="14" stroke-width="0" id="svg_39" y="144.69388" x="284.27488" stroke="#000" fill="#000000">Replication Data</text>
  <text xml:space="preserve" text-anchor="start" font-family="Noto Sans JP" font-size="24" stroke-width="0" id="svg_40" y="155.82239" x="746.42426" stroke="#000" fill="#000000">T</text>
  <rect stroke="#000" id="svg_62" height="18.36735" width="81.60839" y="257.01412" x="287.07483" fill="none"/>
  <text xml:space="preserve" text-anchor="start" font-family="Noto Sans JP" font-size="14" stroke-width="0" id="svg_64" y="270.61957" x="315.39452" stroke="#000" fill="#000000">Ping</text>
  <rect stroke="#000" id="svg_65" height="18.36735" width="132.65306" y="257.01412" x="151.67784" fill="none"/>
  <text xml:space="preserve" text-anchor="start" font-family="Noto Sans JP" font-size="14" stroke-width="0" id="svg_66" y="270.61957" x="162.99682" stroke="#000" fill="#000000">Interpolation Delay</text>
  <ellipse ry="4.7619" rx="4.7619" id="svg_68" cy="238.77406" cx="280" stroke="#000" fill="none"/>
  <path stroke="#000" id="svg_69" d="m370.40431,236.70068c-7.65645,10.84663 -87.41111,4.46626 -87.41111,4.46626" opacity="NaN" fill="none"/>
  <ellipse ry="4.7619" rx="4.7619" id="svg_70" cy="238.77406" cx="180" stroke="#000" fill="none"/>
  <ellipse ry="4.7619" rx="4.7619" id="svg_71" cy="238.77406" cx="80" stroke="#000" fill="none"/>
  <path stroke="#000" id="svg_72" d="m151.78443,221.26171l0,35.1158" opacity="undefined" fill="none"/>
  <text xml:space="preserve" text-anchor="start" font-family="Noto Sans JP" font-size="14" stroke-width="0" id="svg_73" y="216.37424" x="115.59813" stroke="#000" fill="#000000">Replica Time</text>
  <ellipse ry="4.7619" rx="4.7619" id="svg_74" cy="65.15133" cx="80" stroke="#000" fill="none"/>
  <ellipse ry="4.7619" rx="4.7619" id="svg_75" cy="65.18749" cx="180" stroke="#000" fill="none"/>
  <ellipse ry="4.7619" rx="4.7619" id="svg_76" cy="65.18749" cx="280" stroke="#000" fill="none"/>
  <ellipse ry="4.7619" rx="4.7619" id="svg_77" cy="65.18749" cx="380" stroke="#000" fill="none"/>
  <line stroke-linecap="undefined" stroke-linejoin="undefined" id="svg_78" y2="252.43661" x2="380" y1="225.36264" x1="380" stroke="#000" fill="none"/>
  <line stroke-linecap="undefined" stroke-linejoin="undefined" id="svg_79" y2="252.43661" x2="480" y1="225.36264" x1="480" stroke="#000" fill="none"/>
  <line stroke-linecap="undefined" stroke-linejoin="undefined" id="svg_80" y2="252.43661" x2="580" y1="225.36264" x1="580" stroke="#000" fill="none"/>
  <line stroke-linecap="undefined" stroke-linejoin="undefined" id="svg_81" y2="252.43661" x2="680" y1="225.36264" x1="680" stroke="#000" fill="none"/>
  <path stroke="#000" id="svg_82" d="m472.54935,72.50144l-78.68204,165.82619" opacity="undefined" fill="none"/>
  <path transform="rotate(-60 472.015 73.212)" id="svg_83" d="m472.56049,73.21202l-5.40195,-9.69698l9.71287,9.69698l-9.71287,9.69697l5.40195,-9.69697z" stroke="#000" fill="none"/>
  <text transform="rotate(-65 448.338 146.196)" xml:space="preserve" text-anchor="start" font-family="Noto Sans JP" font-size="14" stroke-width="0" id="svg_84" y="150.83817" x="414.46663" stroke="#000" fill="#000000">Client Input</text>
  <rect stroke="#000" id="svg_85" height="18.36735" width="81.60839" y="256.42002" x="392.21045" fill="none"/>
  <text stroke="#000" xml:space="preserve" text-anchor="start" font-family="Noto Sans JP" font-size="14" stroke-width="0" id="svg_86" y="270.02546" x="421.21284" fill="#000000">Ping</text>
  <rect stroke="#000" id="svg_87" height="18.36735" width="94.42193" y="74.05083" x="482.1041" fill="none"/>
  <text style="cursor: move;" xml:space="preserve" text-anchor="start" font-family="Noto Sans JP" font-size="14" stroke-width="0" id="svg_88" y="87.65628" x="494.78847" stroke="#000" fill="#000000">Input Buffer</text>
  <path id="svg_90" d="m474.67372,68.45041c17.75017,-21.84636 105.13562,-4.77889 105.13562,-4.77889" opacity="NaN" stroke="#000" fill="none"/>
  <text xml:space="preserve" text-anchor="start" font-family="Noto Sans JP" font-size="14" stroke-width="0" id="svg_91" y="267.64942" x="548.44286" stroke="#000" fill="#000000">Input Time</text>
  <line stroke-dasharray="2,2" id="svg_92" y2="222.38707" x2="579.80934" y1="80.73899" x1="579.80934" stroke="#000" fill="none"/>
  <text xml:space="preserve" text-anchor="start" font-family="Noto Sans JP" font-size="14" stroke-width="0" id="svg_93" y="16.41625" x="362.06607" stroke="#000" fill="#000000">Server Time</text>
 </g>
</svg>